<svg xmlns="http://www.w3.org/2000/svg" width="100" height="94.656" style="shape-rendering:geometricPrecision;text-rendering:geometricPrecision;image-rendering:optimizeQuality;fill-rule:evenodd;clip-rule:evenodd" viewBox="0 0 100 94.656"><path style="opacity:1" fill="#fdfdfd" d="M-0.127 -0.127h41.476a12015.666 12015.666 0 0 0 -22.392 69.975q31.338 -0.737 60.051 11.578 10.921 5.139 20.356 12.595l0.255 -0.255a44.125 44.125 0 0 0 -6.107 -7.634q0.296 -0.721 0 -1.527 0.872 0.041 1.527 0.636 -0.44 0.349 0.127 0.636 0.198 -0.388 0.636 -0.509a5.587 5.587 0 0 1 1.654 1.018q0.301 -0.844 -0.127 -1.527V-0.127h2.545v94.656h-100z"/><path style="opacity:1" fill="#218aca" d="M41.349 -0.127h0.763a3237.598 3237.598 0 0 0 36.896 14.122 1140.992 1140.992 0 0 1 -31.298 -4.835 3.185 3.185 0 0 0 -1.781 0 18334.987 18334.987 0 0 0 -16.031 51.272q20.518 3.699 39.949 11.323 12.985 5.442 23.664 14.377a44.125 44.125 0 0 1 6.107 7.634l-0.255 0.255q-9.435 -7.456 -20.356 -12.595 -28.713 -12.314 -60.051 -11.578A12015.666 12015.666 0 0 1 41.349 -0.127"/><path style="opacity:1" fill="#283398" d="M9.287 76.717q-0.345 0.27 -0.255 0.763 2.236 0.123 4.326 -0.255a257.102 257.102 0 0 1 41.985 2.163q15.736 2.216 30.025 9.16a49.608 49.608 0 0 1 4.835 3.562q-6.481 -3.009 -13.486 -4.835a188.512 188.512 0 0 0 -17.557 -2.672q-0.423 -0.302 -1.018 -0.382a561.88 561.88 0 0 0 -23.919 0q-1.856 0.199 -3.562 0.636a118.277 118.277 0 0 0 -8.143 0.509q-1.977 0.132 -3.817 0.509a486.162 486.162 0 0 0 -18.575 2.29 501.305 501.305 0 0 1 5.089 -25.954q0.235 -0.042 0.382 -0.255a101.305 101.305 0 0 1 0.636 -5.089 161.097 161.097 0 0 1 2.29 -12.468q1.458 -3.63 1.527 -7.634A667.624 667.624 0 0 0 13.104 20.737q10.436 -0.127 20.865 0.255l-2.545 6.107a228.721 228.721 0 0 1 -12.595 0.763 4975.718 4975.718 0 0 0 -9.542 48.855"/><path style="opacity:1" fill="#f29f85" d="M97.074 -0.127h0.255v84.987q0.084 0.449 -0.255 0.763 -0.232 -0.047 -0.255 -0.255 0.382 -42.684 0.255 -85.496"/><path style="opacity:1" fill="#e04009" d="M96.819 -0.127h0.255q0.127 42.812 -0.255 85.496 -1.288 -1.149 -2.545 -2.29 0.38 0.033 0.636 -0.255 0.075 0.682 0.636 1.018 -0.009 -0.681 0.382 -1.527 0.146 0.212 0.382 0.255a4.308 4.308 0 0 0 0.255 2.036q0.382 -42.366 0.255 -84.733"/><path style="opacity:1" fill="#fd3400" d="M96.31 -0.127h0.509q0.127 42.367 -0.255 84.733a4.308 4.308 0 0 1 -0.255 -2.036z"/><path style="opacity:1" fill="#f23900" d="M83.079 -0.127h13.232v82.697q-0.236 -0.042 -0.382 -0.255 -0.391 0.846 -0.382 1.527 -0.561 -0.336 -0.636 -1.018 -0.256 0.287 -0.636 0.255a78.329 78.329 0 0 0 -10.942 -7.634l-0.763 -0.509A2768.407 2768.407 0 0 0 83.079 -0.127"/><path style="opacity:1" fill="#fe3300" d="M82.57 -0.127h0.509q0.254 37.661 -0.509 75.064z"/><path style="opacity:1" fill="#db3e11" d="M82.315 -0.127h0.255v75.064l0.763 0.509h-1.018z"/><path style="opacity:1" fill="#fdfdfc" d="M42.112 -0.127h40.204v75.573h1.018a78.329 78.329 0 0 1 10.942 7.634q1.256 1.141 2.545 2.29 0.023 0.207 0.255 0.255 0.338 -0.315 0.255 -0.763 0.428 0.683 0.127 1.527a5.587 5.587 0 0 0 -1.654 -1.018q-0.438 0.121 -0.636 0.509 -0.567 -0.287 -0.127 -0.636 -0.655 -0.595 -1.527 -0.636 0.296 0.806 0 1.527 -10.679 -8.935 -23.664 -14.377 -19.431 -7.625 -39.949 -11.323a18334.987 18334.987 0 0 1 16.031 -51.272 3.185 3.185 0 0 1 1.781 0 1140.992 1140.992 0 0 0 31.298 4.835A3237.598 3237.598 0 0 1 42.113 -0.127"/><path style="opacity:1" fill="#e4983f" d="M79.262 20.738v51.399q-0.493 0.091 -0.763 -0.255A1272.585 1272.585 0 0 0 79.008 20.992h-13.995v45.038h-0.255V20.738z"/><path style="opacity:1" fill="#f69425" d="M78.499 71.883a96.606 96.606 0 0 0 -13.486 -5.852V20.992H79.008a1272.585 1272.585 0 0 1 -0.509 50.891"/><path style="opacity:1" fill="#ffe0af" d="M79.262 20.738h-14.504v45.293a1032.637 1032.637 0 0 1 0 -45.802q7.301 0.25 14.504 0.509"/><path style="opacity:1" fill="#494c97" d="M10.051 36.768q-0.069 4.004 -1.527 7.634a126.893 126.893 0 0 1 1.527 -7.634"/><path style="opacity:1" fill="#1ea59e" d="M47.455 41.349h13.486v22.901a191.906 191.906 0 0 1 -13.232 -3.817q-0.382 -9.538 -0.255 -19.084"/><path style="opacity:1" fill="#424592" d="M6.234 56.87a101.305 101.305 0 0 0 -0.636 5.089q-0.146 0.212 -0.382 0.255 0.146 -2.79 1.018 -5.344"/><path style="opacity:1" fill="#6873cc" d="M9.287 76.717q1.869 0.743 4.071 0.509 -2.09 0.377 -4.326 0.255 -0.091 -0.493 0.255 -0.763"/><path style="opacity:1" fill="#414595" d="M59.16 84.605a268.407 268.407 0 0 0 -28.499 0.255q1.707 -0.437 3.562 -0.636 11.959 -0.255 23.919 0 0.595 0.08 1.018 0.382"/><path style="opacity:1" fill="#c1c3e1" d="M22.519 85.369q-0.549 0.468 -1.272 0.763a7.337 7.337 0 0 0 -2.545 -0.255q1.84 -0.377 3.817 -0.509"/></svg>