<?xml version="1.0" encoding="UTF-8"?>
<!DOCTYPE svg PUBLIC "-//W3C//DTD SVG 1.1//EN" "http://www.w3.org/Graphics/SVG/1.1/DTD/svg11.dtd">
<svg xmlns="http://www.w3.org/2000/svg" version="1.1" width="393px" height="372px" style="shape-rendering:geometricPrecision; text-rendering:geometricPrecision; image-rendering:optimizeQuality; fill-rule:evenodd; clip-rule:evenodd" xmlns:xlink="http://www.w3.org/1999/xlink">
<g><path style="opacity:1" fill="#fdfdfd" d="M -0.5,-0.5 C 53.8333,-0.5 108.167,-0.5 162.5,-0.5C 132.894,91.0543 103.56,182.721 74.5,274.5C 156.605,272.57 235.272,287.736 310.5,320C 339.113,333.465 365.78,349.965 390.5,369.5C 390.833,369.167 391.167,368.833 391.5,368.5C 384.616,357.615 376.616,347.615 367.5,338.5C 368.275,336.612 368.275,334.612 367.5,332.5C 369.783,332.608 371.783,333.441 373.5,335C 372.346,335.914 372.513,336.747 374,337.5C 374.519,336.484 375.353,335.818 376.5,335.5C 378.879,336.442 381.046,337.775 383,339.5C 383.789,337.288 383.622,335.288 382.5,333.5C 382.5,222.167 382.5,110.833 382.5,-0.5C 385.833,-0.5 389.167,-0.5 392.5,-0.5C 392.5,123.5 392.5,247.5 392.5,371.5C 261.5,371.5 130.5,371.5 -0.5,371.5C -0.5,247.5 -0.5,123.5 -0.5,-0.5 Z"/></g>
<g><path style="opacity:1" fill="#218aca" d="M 162.5,-0.5 C 163.5,-0.5 164.5,-0.5 165.5,-0.5C 213.729,18.2981 262.062,36.7981 310.5,55C 269.468,49.2444 228.468,42.911 187.5,36C 185.167,35.3333 182.833,35.3333 180.5,36C 159.422,103.071 138.422,170.237 117.5,237.5C 171.258,247.191 223.592,262.024 274.5,282C 308.522,296.257 339.522,315.091 367.5,338.5C 376.616,347.615 384.616,357.615 391.5,368.5C 391.167,368.833 390.833,369.167 390.5,369.5C 365.78,349.965 339.113,333.465 310.5,320C 235.272,287.736 156.605,272.57 74.5,274.5C 103.56,182.721 132.894,91.0543 162.5,-0.5 Z"/></g>
<g><path style="opacity:1" fill="#283398" d="M 36.5,301.5 C 35.596,302.209 35.2627,303.209 35.5,304.5C 41.358,304.822 47.0247,304.489 52.5,303.5C 107.761,301.83 162.761,304.664 217.5,312C 258.728,317.807 298.061,329.807 335.5,348C 342.115,352.281 348.448,356.947 354.5,362C 337.52,354.115 319.854,347.782 301.5,343C 278.651,338.414 255.651,334.914 232.5,332.5C 231.391,331.71 230.058,331.21 228.5,331C 197.167,330.333 165.833,330.333 134.5,331C 129.638,331.523 124.972,332.356 120.5,333.5C 109.808,333.799 99.1417,334.466 88.5,335.5C 83.3196,335.847 78.3196,336.513 73.5,337.5C 49.1145,340.031 24.7811,343.031 0.5,346.5C 6.29585,312.19 12.9625,278.19 20.5,244.5C 21.1174,244.389 21.6174,244.056 22,243.5C 22.6746,236.73 23.5079,230.064 24.5,223.5C 26.8576,207.045 29.8576,190.712 33.5,174.5C 37.3202,164.991 39.3202,154.991 39.5,144.5C 43.7532,123.567 47.7532,102.567 51.5,81.5C 78.8415,81.1669 106.175,81.5002 133.5,82.5C 130.167,90.5 126.833,98.5 123.5,106.5C 106.978,107.958 90.4779,108.958 74,109.5C 61.1702,173.487 48.6702,237.487 36.5,301.5 Z"/></g>
<g><path style="opacity:1" fill="#f29f85" d="M 381.5,-0.5 C 381.833,-0.5 382.167,-0.5 382.5,-0.5C 382.5,110.833 382.5,222.167 382.5,333.5C 382.719,334.675 382.386,335.675 381.5,336.5C 380.893,336.376 380.56,336.043 380.5,335.5C 381.5,223.668 381.833,111.668 381.5,-0.5 Z"/></g>
<g><path style="opacity:1" fill="#e04009" d="M 380.5,-0.5 C 380.833,-0.5 381.167,-0.5 381.5,-0.5C 381.833,111.668 381.5,223.668 380.5,335.5C 377.126,332.49 373.792,329.49 370.5,326.5C 371.496,326.586 372.329,326.252 373,325.5C 373.196,327.286 374.029,328.619 375.5,329.5C 375.476,327.716 375.976,325.716 377,323.5C 377.383,324.056 377.883,324.389 378.5,324.5C 378.187,327.247 378.52,329.914 379.5,332.5C 380.5,221.502 380.833,110.502 380.5,-0.5 Z"/></g>
<g><path style="opacity:1" fill="#fd3400" d="M 378.5,-0.5 C 379.167,-0.5 379.833,-0.5 380.5,-0.5C 380.833,110.502 380.5,221.502 379.5,332.5C 378.52,329.914 378.187,327.247 378.5,324.5C 378.5,216.167 378.5,107.833 378.5,-0.5 Z"/></g>
<g><path style="opacity:1" fill="#f23900" d="M 326.5,-0.5 C 343.833,-0.5 361.167,-0.5 378.5,-0.5C 378.5,107.833 378.5,216.167 378.5,324.5C 377.883,324.389 377.383,324.056 377,323.5C 375.976,325.716 375.476,327.716 375.5,329.5C 374.029,328.619 373.196,327.286 373,325.5C 372.329,326.252 371.496,326.586 370.5,326.5C 356.969,315.244 342.635,305.244 327.5,296.5C 326.5,295.833 325.5,295.167 324.5,294.5C 326.498,196.506 327.164,98.1723 326.5,-0.5 Z"/></g>
<g><path style="opacity:1" fill="#fe3300" d="M 324.5,-0.5 C 325.167,-0.5 325.833,-0.5 326.5,-0.5C 327.164,98.1723 326.498,196.506 324.5,294.5C 324.5,196.167 324.5,97.8333 324.5,-0.5 Z"/></g>
<g><path style="opacity:1" fill="#db3e11" d="M 323.5,-0.5 C 323.833,-0.5 324.167,-0.5 324.5,-0.5C 324.5,97.8333 324.5,196.167 324.5,294.5C 325.5,295.167 326.5,295.833 327.5,296.5C 326.167,296.5 324.833,296.5 323.5,296.5C 323.5,197.5 323.5,98.5 323.5,-0.5 Z"/></g>
<g><path style="opacity:1" fill="#fdfdfc" d="M 165.5,-0.5 C 218.167,-0.5 270.833,-0.5 323.5,-0.5C 323.5,98.5 323.5,197.5 323.5,296.5C 324.833,296.5 326.167,296.5 327.5,296.5C 342.635,305.244 356.969,315.244 370.5,326.5C 373.792,329.49 377.126,332.49 380.5,335.5C 380.56,336.043 380.893,336.376 381.5,336.5C 382.386,335.675 382.719,334.675 382.5,333.5C 383.622,335.288 383.789,337.288 383,339.5C 381.046,337.775 378.879,336.442 376.5,335.5C 375.353,335.818 374.519,336.484 374,337.5C 372.513,336.747 372.346,335.914 373.5,335C 371.783,333.441 369.783,332.608 367.5,332.5C 368.275,334.612 368.275,336.612 367.5,338.5C 339.522,315.091 308.522,296.257 274.5,282C 223.592,262.024 171.258,247.191 117.5,237.5C 138.422,170.237 159.422,103.071 180.5,36C 182.833,35.3333 185.167,35.3333 187.5,36C 228.468,42.911 269.468,49.2444 310.5,55C 262.062,36.7981 213.729,18.2981 165.5,-0.5 Z"/></g>
<g><path style="opacity:1" fill="#e4983f" d="M 311.5,81.5 C 311.5,148.833 311.5,216.167 311.5,283.5C 310.209,283.737 309.209,283.404 308.5,282.5C 310.497,216.175 311.163,149.508 310.5,82.5C 292.167,82.5 273.833,82.5 255.5,82.5C 255.5,141.5 255.5,200.5 255.5,259.5C 255.167,259.5 254.833,259.5 254.5,259.5C 254.5,200.167 254.5,140.833 254.5,81.5C 273.5,81.5 292.5,81.5 311.5,81.5 Z"/></g>
<g><path style="opacity:1" fill="#f69425" d="M 308.5,282.5 C 291.347,273.456 273.68,265.789 255.5,259.5C 255.5,200.5 255.5,141.5 255.5,82.5C 273.833,82.5 292.167,82.5 310.5,82.5C 311.163,149.508 310.497,216.175 308.5,282.5 Z"/></g>
<g><path style="opacity:1" fill="#ffe0af" d="M 311.5,81.5 C 292.5,81.5 273.5,81.5 254.5,81.5C 254.5,140.833 254.5,200.167 254.5,259.5C 253.169,199.665 253.169,139.665 254.5,79.5C 273.628,80.1549 292.628,80.8215 311.5,81.5 Z"/></g>
<g><path style="opacity:1" fill="#494c97" d="M 39.5,144.5 C 39.3202,154.991 37.3202,164.991 33.5,174.5C 35.2152,164.328 37.2152,154.328 39.5,144.5 Z"/></g>
<g><path style="opacity:1" fill="#1ea59e" d="M 186.5,162.5 C 204.167,162.5 221.833,162.5 239.5,162.5C 239.5,192.5 239.5,222.5 239.5,252.5C 221.984,248.121 204.65,243.121 187.5,237.5C 186.5,212.509 186.167,187.509 186.5,162.5 Z"/></g>
<g><path style="opacity:1" fill="#424592" d="M 24.5,223.5 C 23.5079,230.064 22.6746,236.73 22,243.5C 21.6174,244.056 21.1174,244.389 20.5,244.5C 20.8822,237.189 22.2155,230.189 24.5,223.5 Z"/></g>
<g><path style="opacity:1" fill="#6873cc" d="M 36.5,301.5 C 41.3958,303.446 46.7291,304.113 52.5,303.5C 47.0247,304.489 41.358,304.822 35.5,304.5C 35.2627,303.209 35.596,302.209 36.5,301.5 Z"/></g>
<g><path style="opacity:1" fill="#414595" d="M 232.5,332.5 C 195.122,330.85 157.789,331.183 120.5,333.5C 124.972,332.356 129.638,331.523 134.5,331C 165.833,330.333 197.167,330.333 228.5,331C 230.058,331.21 231.391,331.71 232.5,332.5 Z"/></g>
<g><path style="opacity:1" fill="#c1c3e1" d="M 88.5,335.5 C 87.063,336.725 85.3964,337.725 83.5,338.5C 80.2423,337.583 76.909,337.249 73.5,337.5C 78.3196,336.513 83.3196,335.847 88.5,335.5 Z"/></g>
</svg>
