<svg xmlns="http://www.w3.org/2000/svg" viewBox="0 0 678.87 337.37"><defs><style>.cls-1{fill:#203237;}.cls-2{font-size:47.34px;fill:#3a7795;font-family:Bauhaus93, "Bauhaus 93";}.cls-3{fill:#aa7941;letter-spacing:0em;}.cls-4{fill:#f43900;}.cls-5{fill:#f69525;}.cls-6{fill:#1ba59e;}.cls-7{fill:#1d8bcb;}.cls-8{fill:#273399;}</style></defs><title>Ledgrio 4</title><g id="BACKGROUND"><rect class="cls-1" width="678.87" height="337.37"/></g><g id="Layer_5" data-name="Layer 5"><text class="cls-2" transform="translate(242.47 277.63)">Ledg<tspan class="cls-3" x="96.8" y="0">rio</tspan></text><path class="cls-4" d="M367.46,41h23.15V174.37s-17.6-15.74-23.15-16.2Z" transform="translate(1.31)"/><path class="cls-5" d="M340.14,73.45h22.69v80.09s-15.74-8.33-22.69-9.72Z" transform="translate(1.31)"/><polygon class="cls-6" points="314.61 105.39 335.44 105.39 335.44 141.04 314.61 135.02 314.61 105.39"/><path class="cls-7" d="M362.83,63.26,304,41l-35.18,108.8s73.15-5.1,125.92,38c0,0-15.74-36.11-108.79-52.32l25-80.55Z" transform="translate(1.31)"/><path class="cls-8" d="M292.46,73.45H260.05L239.68,178.54s99.31-18.06,141,6.71c0,0-23.22-27.7-126.92-23.69l15.12-77.15,19.44-.62Z" transform="translate(1.31)"/></g></svg>